<svg width="96" height="96" viewBox="0 0 96 96" fill="none" xmlns="http://www.w3.org/2000/svg">
<g clip-path="url(#clip0_67930_31816)">
<path d="M49.1691 27.3101H28.7891V30.3401H49.1691V27.3101Z" fill="url(#paint0_linear_67930_31816)"/>
<path d="M19.5896 32.9098C19.9296 32.9998 20.2696 33.0398 20.6096 33.0398C22.4896 33.0398 24.2096 31.7598 24.6896 29.8498C24.9596 28.7598 24.7896 27.6298 24.2196 26.6698C23.6396 25.7098 22.7196 25.0298 21.6296 24.7498C19.3796 24.1898 17.0896 25.5598 16.5296 27.8098C15.9696 30.0598 17.3396 32.3498 19.5896 32.9098ZM19.4696 28.5498C19.5996 28.0198 20.0796 27.6598 20.6096 27.6598C20.6996 27.6598 20.7996 27.6698 20.8996 27.6898C21.1996 27.7698 21.4596 27.9598 21.6196 28.2198C21.7796 28.4898 21.8296 28.7998 21.7496 29.1098C21.6696 29.4198 21.4796 29.6698 21.2196 29.8298C20.9596 29.9898 20.6396 30.0398 20.3296 29.9598C19.6996 29.7998 19.3196 29.1598 19.4796 28.5398L19.4696 28.5498Z" fill="url(#paint1_linear_67930_31816)"/>
<path d="M49.1691 41.8301H28.7891V44.8601H49.1691V41.8301Z" fill="url(#paint2_linear_67930_31816)"/>
<path d="M19.5896 47.4298C19.9296 47.5198 20.2696 47.5598 20.6096 47.5598C22.4896 47.5598 24.2096 46.2798 24.6896 44.3698C24.9596 43.2798 24.7896 42.1498 24.2196 41.1898C23.6396 40.2298 22.7196 39.5498 21.6296 39.2698C19.3796 38.7098 17.0896 40.0798 16.5296 42.3298C15.9696 44.5798 17.3396 46.8698 19.5896 47.4298ZM19.4696 43.0698C19.5996 42.5398 20.0796 42.1798 20.6096 42.1798C20.6996 42.1798 20.7996 42.1898 20.8996 42.2098C21.1996 42.2898 21.4596 42.4798 21.6196 42.7398C21.7796 43.0098 21.8296 43.3198 21.7496 43.6298C21.6696 43.9398 21.4796 44.1898 21.2196 44.3498C20.9496 44.5098 20.6396 44.5598 20.3296 44.4798C19.6996 44.3198 19.3196 43.6798 19.4796 43.0598L19.4696 43.0698Z" fill="url(#paint3_linear_67930_31816)"/>
<path d="M49.1691 56.3599H28.7891V59.3899H49.1691V56.3599Z" fill="url(#paint4_linear_67930_31816)"/>
<path d="M19.5896 61.9498C19.9296 62.0398 20.2696 62.0798 20.6096 62.0798C22.4896 62.0798 24.2096 60.7998 24.6896 58.8898C24.9596 57.7998 24.7896 56.6698 24.2196 55.7098C23.6396 54.7498 22.7196 54.0698 21.6296 53.7898C19.3796 53.2298 17.0896 54.5998 16.5296 56.8498C15.9696 59.0998 17.3396 61.3898 19.5896 61.9498ZM19.4696 57.5898C19.5996 57.0598 20.0796 56.6998 20.6096 56.6998C20.6996 56.6998 20.7996 56.7098 20.8996 56.7298C21.1996 56.8098 21.4596 56.9998 21.6196 57.2598C21.7796 57.5298 21.8296 57.8398 21.7496 58.1498C21.6696 58.4598 21.4796 58.7098 21.2196 58.8698C20.9596 59.0298 20.6396 59.0798 20.3296 58.9998C19.6996 58.8398 19.3196 58.1998 19.4796 57.5798L19.4696 57.5898Z" fill="url(#paint5_linear_67930_31816)"/>
<path d="M69.69 70.47V13.06C69.69 9.72 66.97 7 63.63 7H14.06C10.72 7 8 9.72 8 13.06V77.64C8 83.31 12.6 88.1 18.05 88.1H77.53C83.3 88.1 88 83.4 88 77.63V70.47H69.69ZM14.06 10.03H63.62C65.29 10.03 66.65 11.39 66.65 13.06V14.7H11.03V13.06C11.03 11.39 12.39 10.03 14.06 10.03ZM11.03 17.74H66.66V70.47H26.34V76.61C26.34 80.92 23.01 84.52 18.92 84.64C16.84 84.72 14.85 83.94 13.35 82.48C11.85 81.02 11.03 79.08 11.03 76.99V17.74ZM84.97 77.63C84.97 81.73 81.63 85.07 77.53 85.07H25.55C27.88 83.03 29.37 79.98 29.37 76.62V73.51H84.97V77.63Z" fill="url(#paint6_linear_67930_31816)"/>
<path d="M69.22 33.5898C76.91 33.5898 83.18 39.8498 83.18 47.5498C83.18 53.2198 79.79 58.0998 74.93 60.2898C73.8 60.7898 72.58 61.1598 71.32 61.3498C70.63 61.4498 69.94 61.5198 69.22 61.5198C63.75 61.5198 59.03 58.3598 56.73 53.7798C56.18 52.6598 55.75 51.4598 55.51 50.1998C55.34 49.3398 55.25 48.4598 55.25 47.5498C55.25 39.8598 61.51 33.5898 69.22 33.5898Z" fill="white"/>
<path fill-rule="evenodd" clip-rule="evenodd" d="M69.22 35.0898C62.3384 35.0898 56.75 40.6883 56.75 47.5498C56.75 48.3597 56.83 49.1423 56.9815 49.909L56.9835 49.9192L56.9835 49.9192C57.1943 51.0259 57.5749 52.0962 58.0735 53.1127C60.1327 57.2077 64.3472 60.0198 69.22 60.0198C69.8416 60.0198 70.4534 59.9596 71.1007 59.8659C72.2161 59.6973 73.3044 59.3684 74.3184 58.9202C78.6601 56.9616 81.68 52.6042 81.68 47.5498C81.68 40.679 76.0823 35.0898 69.22 35.0898ZM53.75 47.5498C53.75 39.0314 60.6816 32.0898 69.22 32.0898C77.7377 32.0898 84.68 39.0207 84.68 47.5498C84.68 53.8337 80.9221 59.235 75.5462 61.6574L75.537 61.6616L75.537 61.6616C74.2936 62.2117 72.9451 62.6217 71.5437 62.8331L71.5351 62.8344L71.5351 62.8343C70.804 62.9403 70.0371 63.0198 69.22 63.0198C63.1551 63.0198 57.9314 59.5147 55.3895 54.453L55.3835 54.4411L55.3836 54.441C54.7844 53.2208 54.3064 51.8948 54.0375 50.4856C53.8497 49.5339 53.75 48.5582 53.75 47.5498Z" fill="url(#paint7_linear_67930_31816)"/>
<path d="M63.2906 53.49C63.6506 53.85 64.1206 54.03 64.5806 54.03C65.0406 54.03 65.5206 53.85 65.8706 53.49L69.2206 50.14L72.5706 53.49C72.9306 53.85 73.4006 54.03 73.8606 54.03C74.3206 54.03 74.8006 53.85 75.1506 53.49C75.8606 52.78 75.8606 51.62 75.1506 50.9L71.8006 47.55L75.1506 44.2C75.8606 43.49 75.8606 42.33 75.1506 41.61C74.4406 40.89 73.2806 40.9 72.5606 41.61L69.2106 44.96L65.8606 41.61C65.1506 40.9 63.9906 40.9 63.2706 41.61C62.5506 42.32 62.5606 43.48 63.2706 44.2L66.6206 47.55L63.2706 50.9C62.5606 51.61 62.5606 52.77 63.2706 53.49H63.2906Z" fill="url(#paint8_linear_67930_31816)"/>
</g>
<defs>
<linearGradient id="paint0_linear_67930_31816" x1="38.9791" y1="92.6501" x2="38.9791" y2="10.0301" gradientUnits="userSpaceOnUse">
<stop stop-color="#B829FF"/>
<stop offset="0.53" stop-color="#792EE5"/>
<stop offset="1" stop-color="#624EFF"/>
</linearGradient>
<linearGradient id="paint1_linear_67930_31816" x1="20.5996" y1="92.6498" x2="20.5996" y2="10.0298" gradientUnits="userSpaceOnUse">
<stop stop-color="#B829FF"/>
<stop offset="0.53" stop-color="#792EE5"/>
<stop offset="1" stop-color="#624EFF"/>
</linearGradient>
<linearGradient id="paint2_linear_67930_31816" x1="38.9791" y1="92.6501" x2="38.9791" y2="10.0301" gradientUnits="userSpaceOnUse">
<stop stop-color="#B829FF"/>
<stop offset="0.53" stop-color="#792EE5"/>
<stop offset="1" stop-color="#624EFF"/>
</linearGradient>
<linearGradient id="paint3_linear_67930_31816" x1="20.5996" y1="92.6498" x2="20.5996" y2="10.0298" gradientUnits="userSpaceOnUse">
<stop stop-color="#B829FF"/>
<stop offset="0.53" stop-color="#792EE5"/>
<stop offset="1" stop-color="#624EFF"/>
</linearGradient>
<linearGradient id="paint4_linear_67930_31816" x1="38.9791" y1="92.6498" x2="38.9791" y2="10.0299" gradientUnits="userSpaceOnUse">
<stop stop-color="#B829FF"/>
<stop offset="0.53" stop-color="#792EE5"/>
<stop offset="1" stop-color="#624EFF"/>
</linearGradient>
<linearGradient id="paint5_linear_67930_31816" x1="20.5996" y1="92.6498" x2="20.5996" y2="10.0298" gradientUnits="userSpaceOnUse">
<stop stop-color="#B829FF"/>
<stop offset="0.53" stop-color="#792EE5"/>
<stop offset="1" stop-color="#624EFF"/>
</linearGradient>
<linearGradient id="paint6_linear_67930_31816" x1="48" y1="92.65" x2="48" y2="10.03" gradientUnits="userSpaceOnUse">
<stop stop-color="#B829FF"/>
<stop offset="0.53" stop-color="#792EE5"/>
<stop offset="1" stop-color="#624EFF"/>
</linearGradient>
<linearGradient id="paint7_linear_67930_31816" x1="69.46" y1="63.0098" x2="68.98" y2="32.0898" gradientUnits="userSpaceOnUse">
<stop stop-color="#B829FF"/>
<stop offset="0.53" stop-color="#792EE5"/>
<stop offset="1" stop-color="#624EFF"/>
</linearGradient>
<linearGradient id="paint8_linear_67930_31816" x1="70.2006" y1="109.8" x2="68.9606" y2="30.78" gradientUnits="userSpaceOnUse">
<stop stop-color="#B829FF"/>
<stop offset="0.53" stop-color="#792EE5"/>
<stop offset="1" stop-color="#624EFF"/>
</linearGradient>
<clipPath id="clip0_67930_31816">
<rect width="80" height="81.1" fill="white" transform="translate(8 7)"/>
</clipPath>
</defs>
</svg>
