<svg width="147" height="38" viewBox="0 0 147 38" fill="none" xmlns="http://www.w3.org/2000/svg">
<path d="M15.5629 0.195181L0.711016 8.96731C0.494828 9.09534 0.315359 9.2791 0.190577 9.50023C0.0657942 9.72135 8.06666e-05 9.97205 0 10.2273V27.7739C8.06666e-05 28.0291 0.0657942 28.2798 0.190577 28.501C0.315359 28.7221 0.494828 28.9058 0.711016 29.0339L15.5629 37.8048C15.7798 37.9326 16.0259 38 16.2763 38C16.5267 38 16.7728 37.9326 16.9896 37.8048L31.8416 29.0339C32.0577 28.9058 32.2372 28.7221 32.362 28.501C32.4868 28.2798 32.5525 28.0291 32.5526 27.7739V10.2273C32.5525 9.97205 32.4868 9.72135 32.362 9.50023C32.2372 9.2791 32.0577 9.09534 31.8416 8.96731L16.9896 0.195181C16.7728 0.0672991 16.5267 0 16.2763 0C16.0259 0 15.7798 0.0672991 15.5629 0.195181V0.195181ZM13.1422 29.4447L14.9057 21.7726C14.9183 21.717 14.9168 21.659 14.9013 21.6043C14.8857 21.5495 14.8566 21.4997 14.8168 21.4596L10.5343 17.202C10.5037 17.1712 10.4793 17.1345 10.4627 17.094C10.4461 17.0535 10.4375 17.01 10.4375 16.9661C10.4375 16.9222 10.4461 16.8787 10.4627 16.8382C10.4793 16.7977 10.5037 16.761 10.5343 16.7302L18.8923 8.24117C18.942 8.19024 19.0066 8.15729 19.0762 8.14731C19.1459 8.13734 19.2169 8.15089 19.2784 8.18592C19.3398 8.22094 19.3884 8.27551 19.4166 8.34133C19.4449 8.40714 19.4513 8.48061 19.435 8.5505L17.6691 16.2418C17.6559 16.2973 17.6571 16.3554 17.6727 16.4103C17.6883 16.4652 17.7177 16.515 17.758 16.5547L22.0077 20.7897C22.0384 20.8203 22.0627 20.857 22.0793 20.8974C22.0959 20.9378 22.1044 20.9811 22.1044 21.0249C22.1044 21.0687 22.0959 21.1121 22.0793 21.1525C22.0627 21.1929 22.0384 21.2295 22.0077 21.2602L13.6778 29.7552C13.6277 29.8048 13.5632 29.8366 13.494 29.8458C13.4248 29.855 13.3545 29.8411 13.2937 29.8062C13.2328 29.7713 13.1846 29.7172 13.1563 29.6521C13.1279 29.587 13.1209 29.5142 13.1363 29.4447H13.1422Z" fill="url(#paint0_linear_531_6702)"/>
<path fill-rule="evenodd" clip-rule="evenodd" d="M54.972 11.6622H52.3993V14.2896H54.972V11.6622ZM43.5583 11.6622H40.8896V27.0984H50.3621V24.5379H43.5548L43.5583 11.6622ZM52.4039 16.3199H54.9767V27.0925H52.4039V16.3199ZM64.9895 17.1774C64.6555 16.8951 64.2852 16.6608 63.889 16.4812C63.3504 16.243 62.7686 16.1238 62.1817 16.1313C61.4708 16.1269 60.7669 16.2746 60.1152 16.5648C59.4899 16.841 58.9222 17.2371 58.4429 17.7316C57.9659 18.2294 57.5882 18.8171 57.3308 19.4621C57.0626 20.1272 56.9258 20.84 56.9285 21.5593C56.9251 22.2872 57.0577 23.0091 57.3191 23.6864C57.5674 24.334 57.9336 24.9277 58.3985 25.436C58.8689 25.9415 59.4356 26.3435 60.0638 26.6172C60.7328 26.9097 61.4539 27.0573 62.1817 27.0507C62.7652 27.0581 63.3444 26.9469 63.8855 26.7235C64.2823 26.5556 64.6543 26.3321 64.9907 26.0594V26.684C64.9907 27.5201 64.7568 28.153 64.31 28.5746C63.8633 28.9962 63.2634 29.2171 62.5559 29.2171C61.8998 29.2171 61.3572 29.0977 60.9432 28.8684C60.5258 28.6305 60.1952 28.2609 60.0006 27.815L59.9597 27.7254H57.27L58.0734 29.788L58.1061 29.8394C58.675 30.4373 59.3697 30.8951 60.1375 31.1782C60.8988 31.4623 61.7031 31.6079 62.5138 31.6081C64.0972 31.6081 65.3473 31.1686 66.2291 30.304C67.1108 29.4393 67.5623 28.2832 67.5623 26.8728V16.3259H64.9895V17.1822V17.1774ZM64.3463 19.4466C64.6189 19.7224 64.833 20.0525 64.9754 20.4163C65.1178 20.7802 65.1855 21.17 65.1742 21.5617C65.1862 22.3525 64.8949 23.1167 64.3626 23.6911C64.1092 23.9788 63.7978 24.2068 63.4497 24.3596C63.1016 24.5124 62.7253 24.5863 62.3465 24.5761C61.9692 24.5872 61.594 24.5138 61.2473 24.3612C60.9007 24.2085 60.5909 23.9802 60.3398 23.6923C59.8123 23.115 59.5247 22.3512 59.5375 21.5617C59.5375 20.7114 59.8065 19.9996 60.3374 19.4442C60.5975 19.1706 60.9103 18.955 61.2561 18.8111C61.602 18.6672 61.9732 18.5981 62.3465 18.6082C62.7182 18.6035 63.087 18.6757 63.4307 18.8204C63.7744 18.9651 64.0858 19.1793 64.3463 19.4502V19.4466ZM73.4515 16.5612C73.9969 16.2705 74.6046 16.1232 75.2198 16.1324C76.4629 16.1324 77.4814 16.5301 78.2486 17.3136C79.0158 18.0971 79.404 19.2077 79.404 20.6158V27.0949H76.8312V20.912C76.8469 20.3134 76.6482 19.7295 76.2723 19.2698C75.9015 18.8268 75.3811 18.6106 74.6818 18.6106C73.9825 18.6106 73.4457 18.8316 73.0446 19.2842C72.6435 19.7368 72.447 20.3459 72.447 21.1019V27.096H69.8742V11.6622H72.447V17.2993C72.7461 17.007 73.0843 16.7597 73.4515 16.5648V16.5612ZM85.1624 12.7466L82.7966 13.6316L82.8258 16.3211H80.5243V18.6297H82.5943V23.5144C82.5943 24.6908 82.9509 25.5996 83.6549 26.2159C84.3589 26.8321 85.222 27.1355 86.2429 27.1355C86.5049 27.1355 86.7465 27.1319 86.968 27.1247C87.1913 27.1188 87.3726 27.1068 87.5129 27.0925L87.6509 27.0794V24.8102H86.5926C86.4035 24.8191 86.2146 24.7895 86.0369 24.7231C85.8592 24.6566 85.6963 24.5547 85.5576 24.4232C85.2957 24.1676 85.1635 23.7783 85.1635 23.2648V18.6333H87.9807V16.3247H85.1635V12.7502L85.1624 12.7466ZM102.275 11.6586H104.848V14.2861H102.275V11.6586ZM104.848 16.3164H102.275V27.0889H104.848V16.3164ZM126.958 17.175V16.3175H129.531V26.8835C129.531 28.2928 129.082 29.4476 128.198 30.3147C127.314 31.1818 126.066 31.6177 124.482 31.6177C123.672 31.6174 122.868 31.4722 122.106 31.1889C121.338 30.9048 120.643 30.4467 120.074 29.8489L120.041 29.7976L119.239 27.735H121.928L121.971 27.8246C122.165 28.2707 122.495 28.6404 122.913 28.878C123.327 29.1097 123.87 29.2267 124.526 29.2267C125.237 29.2267 125.829 29.0105 126.28 28.5854C126.731 28.1602 126.961 27.5272 126.961 26.6948V26.069C126.625 26.342 126.253 26.5659 125.857 26.7342C125.315 26.9566 124.735 27.0674 124.152 27.0602C123.424 27.0672 122.703 26.92 122.034 26.6279C121.406 26.3534 120.84 25.9516 120.37 25.4468C119.904 24.9382 119.538 24.3441 119.29 23.6959C119.028 23.0192 118.895 22.2976 118.898 21.57C118.896 20.8507 119.033 20.1381 119.301 19.4729C119.558 18.8275 119.936 18.2396 120.414 17.7423C120.893 17.2477 121.46 16.8513 122.085 16.5743C122.737 16.2849 123.441 16.1373 124.152 16.1408C124.738 16.1337 125.32 16.253 125.859 16.4907C126.253 16.6699 126.621 16.9029 126.954 17.1834L126.958 17.175ZM126.33 23.6864C126.863 23.1124 127.155 22.3479 127.143 21.5569C127.154 21.1651 127.086 20.7751 126.944 20.4111C126.801 20.0471 126.587 19.7168 126.315 19.4407C126.054 19.1707 125.742 18.9575 125.398 18.8138C125.054 18.6702 124.686 18.599 124.314 18.6046C123.941 18.5948 123.57 18.6641 123.224 18.8079C122.878 18.9518 122.565 19.1672 122.305 19.4407C121.775 19.996 121.506 20.7078 121.506 21.5581C121.494 22.3476 121.781 23.1113 122.308 23.6887C122.56 23.9763 122.869 24.2044 123.216 24.3571C123.562 24.5097 123.937 24.5833 124.314 24.5725C124.692 24.583 125.067 24.51 125.414 24.3585C125.761 24.207 126.072 23.9805 126.326 23.6947L126.33 23.6864ZM110.153 18.9402H107.581V27.194H110.153V18.9402ZM110.153 18.9402V16.3128H112.726C113.888 16.3131 115.003 16.7848 115.825 17.6242C116.647 18.4636 117.109 19.6019 117.109 20.789V27.1904H114.536V21.3897C114.536 20.742 114.284 20.1207 113.836 19.6627C113.387 19.2047 112.779 18.9474 112.145 18.9474L110.153 18.9402ZM92.7555 18.9402H90.1828V27.194H92.7555V18.9402ZM92.7555 18.9402V16.3128H95.3283C96.4908 16.3128 97.6056 16.7844 98.4276 17.6238C99.2496 18.4633 99.7114 19.6018 99.7114 20.789V27.1904H97.1386V21.3897C97.1386 20.742 96.8866 20.1207 96.4381 19.6627C95.9896 19.2047 95.3814 18.9474 94.7471 18.9474L92.7555 18.9402Z" fill="#292F36"/>
<path d="M134.12 16.3261H131.887C131.794 16.3261 131.719 16.4031 131.719 16.4981V18.778C131.719 18.873 131.794 18.9499 131.887 18.9499H134.12C134.213 18.9499 134.288 18.873 134.288 18.778V16.4981C134.288 16.4031 134.213 16.3261 134.12 16.3261Z" fill="#292F36"/>
<path d="M139.698 11.8497C138.537 11.8497 137.827 12.3334 137.297 12.8051C137.286 12.8159 137.277 12.8284 137.27 12.8422L136.667 14.0687C136.657 14.0869 136.651 14.1075 136.651 14.1284C136.651 14.1494 136.657 14.17 136.667 14.1881C136.677 14.2057 136.692 14.2203 136.71 14.2303C136.727 14.2403 136.747 14.2456 136.767 14.2455H138.232C138.255 14.2454 138.278 14.2381 138.298 14.2244C138.317 14.2108 138.332 14.1915 138.34 14.169C138.559 13.6041 138.995 13.333 139.672 13.333C140.403 13.333 140.893 13.7104 140.893 14.2705V14.4258C140.415 14.4389 139.932 14.464 139.226 14.4998C137.516 14.5703 136.536 15.3358 136.536 16.6054C136.536 17.8964 137.563 18.7634 139.091 18.7634C140.041 18.7634 140.611 18.4159 140.932 18.1054V18.5151C140.932 18.5468 140.944 18.5771 140.966 18.5995C140.988 18.6219 141.018 18.6345 141.049 18.6345H142.388C142.419 18.6345 142.449 18.6219 142.471 18.5995C142.492 18.5771 142.505 18.5468 142.505 18.5151V14.4772C142.506 12.8302 141.462 11.8497 139.698 11.8497ZM139.382 17.3578C138.798 17.3578 138.16 17.1547 138.16 16.5862C138.16 16.4202 138.16 15.9139 139.531 15.8422C140.146 15.7944 140.406 15.7801 140.894 15.767C140.887 16.3737 140.795 16.7033 140.574 16.9302C140.316 17.2097 139.892 17.3578 139.382 17.3578V17.3578Z" fill="#292F36"/>
<path d="M145.547 9.10291H144.157C144.093 9.10291 144.04 9.15638 144.04 9.22233V10.6412C144.04 10.7071 144.093 10.7606 144.157 10.7606H145.547C145.611 10.7606 145.664 10.7071 145.664 10.6412V9.22233C145.664 9.15638 145.611 9.10291 145.547 9.10291Z" fill="#292F36"/>
<path d="M145.547 11.9669H144.157C144.093 11.9669 144.04 12.0204 144.04 12.0863V18.5104C144.04 18.5764 144.093 18.6299 144.157 18.6299H145.547C145.611 18.6299 145.664 18.5764 145.664 18.5104V12.0863C145.664 12.0204 145.611 11.9669 145.547 11.9669Z" fill="#292F36"/>
<defs>
<linearGradient id="paint0_linear_531_6702" x1="24.5477" y1="4.89662" x2="-7.54851" y2="59.0691" gradientUnits="userSpaceOnUse">
<stop stop-color="#792EE5"/>
<stop offset="1" stop-color="#3EABB3"/>
</linearGradient>
</defs>
</svg>
