<svg width="80" height="90" viewBox="0 0 80 90" fill="none" xmlns="http://www.w3.org/2000/svg">
<path d="M80.0199 41.68C79.1526 23.8258 64.3588 9.57031 46.2953 9.57031C41.4405 9.57031 36.8149 10.6071 32.638 12.4613L34.2629 15.3522C37.9514 13.7572 42.0187 12.87 46.2853 12.87C63.0828 12.87 76.7501 26.5373 76.7501 43.3348L76.8 80.5385C76.8 83.6787 74.238 86.2407 71.0978 86.2407C67.9576 86.2407 65.3956 83.6787 65.3956 80.5385V77.1093C65.3956 74.1286 63.4616 71.5566 60.5906 70.6993C59.9127 70.4999 59.2947 70.4002 58.6965 70.4002C56.4236 70.4002 54.3302 71.5466 53.0841 73.4507C52.3763 74.5473 51.9975 75.8033 51.9975 77.0993V80.5286C51.9975 83.6688 49.4355 86.2308 46.2953 86.2308C43.1551 86.2308 40.5931 83.6688 40.5931 80.5286V77.0993C40.5931 75.8033 40.2143 74.5373 39.5065 73.4507C38.2604 71.5367 36.1669 70.4002 33.894 70.4002C33.2959 70.4002 32.6679 70.4999 32 70.6993C29.119 71.5466 27.185 74.1286 27.185 77.1093V80.5385C27.185 83.6787 24.633 86.2407 21.4828 86.2407C18.3327 86.2407 15.7806 83.6787 15.7806 80.5385L15.8305 43.3348C15.8305 41.7298 15.9601 40.1547 16.1993 38.6195H12.8598C12.7202 39.6264 12.6205 40.6532 12.5707 41.6899H12.481V80.5385C12.481 85.503 16.5183 89.5404 21.4828 89.5404C26.4473 89.5404 30.4847 85.503 30.4847 80.5385V77.1093C30.4847 75.604 31.4716 74.298 32.9271 73.8694C33.2959 73.7597 33.595 73.7099 33.8841 73.7099C35.0305 73.7099 36.0972 74.2881 36.7252 75.265C37.0841 75.8233 37.2834 76.4613 37.2834 77.1093V80.5385C37.2834 85.503 41.3208 89.5404 46.2853 89.5404C51.2498 89.5404 55.2872 85.503 55.2872 80.5385V77.1093C55.2872 76.4613 55.4766 75.8233 55.8454 75.265C56.4735 74.2881 57.5401 73.7099 58.6866 73.7099C58.9657 73.7099 59.2747 73.7597 59.6436 73.8694C61.109 74.298 62.0859 75.604 62.0859 77.1093V80.5385C62.0859 85.503 66.1233 89.5404 71.0878 89.5404C76.0523 89.5404 80.0897 85.503 80.0897 80.5385V41.68H80H80.0199Z" fill="url(#paint0_linear_110_33860)"/>
<path d="M59.6283 53.0585C61.5631 51.1237 61.5631 47.9867 59.6283 46.0518C57.6934 44.1169 54.5564 44.1169 52.6215 46.0518C50.6867 47.9867 50.6867 51.1237 52.6215 53.0585C54.5564 54.9934 57.6934 54.9934 59.6283 53.0585Z" fill="url(#paint1_linear_110_33860)"/>
<path d="M36.4657 54.5096C39.2021 54.5096 41.4203 52.2914 41.4203 49.5551C41.4203 46.8188 39.2021 44.6006 36.4657 44.6006C33.7294 44.6006 31.5112 46.8188 31.5112 49.5551C31.5112 52.2914 33.7294 54.5096 36.4657 54.5096Z" fill="url(#paint2_linear_110_33860)"/>
<path d="M46.3651 65.0967C50.3526 65.0967 53.5925 61.2886 53.5925 56.5933H39.1377C39.1377 61.2886 42.3776 65.0967 46.3651 65.0967Z" fill="url(#paint3_linear_110_33860)"/>
<path d="M8.41348 35.6187C6.46955 35.6187 4.725 34.6118 3.73809 32.9371C2.76114 31.2623 2.7412 29.2486 3.69821 27.5539L15.9898 5.74206C16.9667 4.01745 18.7213 2.99065 20.7051 2.99065C22.6889 2.99065 24.4434 4.01745 25.4203 5.74206L29.9562 13.7969C30.8234 13.3184 31.7206 12.8698 32.6378 12.4611L28.0222 4.27664C26.5169 1.59502 23.7755 0 20.7051 0C17.6347 0 14.8932 1.59502 13.3879 4.27664L1.09634 26.0885C-0.389015 28.7202 -0.359108 31.8405 1.16613 34.4523C2.69136 37.0542 5.40289 38.6193 8.42345 38.6193H12.8696C13.0091 37.6025 13.1985 36.6056 13.4278 35.6287H8.42345L8.41348 35.6187Z" fill="url(#paint4_linear_110_33860)"/>
<path d="M37.7117 27.5541C38.6687 29.2488 38.6488 31.2625 37.6718 32.9373C36.6949 34.6121 34.9404 35.6189 32.9964 35.6189H16.817C16.5578 36.5959 16.3485 37.5928 16.189 38.6096H32.9964C36.017 38.6096 38.7285 37.0544 40.2538 34.4426C41.779 31.8407 41.7989 28.7105 40.3136 26.0787L34.2625 15.3423C33.3454 15.741 32.4482 16.1797 31.5709 16.6681L37.7017 27.5541H37.7117Z" fill="url(#paint5_linear_110_33860)"/>
<path d="M16.817 35.6187H13.4176C13.1883 36.5956 12.9989 37.5925 12.8594 38.6093H16.1989C16.3584 37.5925 16.5678 36.5956 16.827 35.6187H16.817Z" fill="url(#paint6_linear_110_33860)"/>
<path d="M16.817 35.6187H13.4176C13.1883 36.5956 12.9989 37.5925 12.8594 38.6093H16.1989C16.3584 37.5925 16.5678 36.5956 16.827 35.6187H16.817Z" fill="url(#paint7_linear_110_33860)"/>
<path d="M31.5813 16.668C32.4486 16.1895 33.3457 15.7409 34.2729 15.3421L32.6479 12.4512C31.7308 12.8599 30.8436 13.3085 29.9663 13.787L31.5912 16.658L31.5813 16.668Z" fill="url(#paint8_linear_110_33860)"/>
<path d="M31.5813 16.668C32.4486 16.1895 33.3457 15.7409 34.2729 15.3421L32.6479 12.4512C31.7308 12.8599 30.8436 13.3085 29.9663 13.787L31.5912 16.658L31.5813 16.668Z" fill="url(#paint9_linear_110_33860)"/>
<path d="M19.1401 31.4019C19.1401 31.8106 19.4691 32.1396 19.8778 32.1396H22.3999C22.8087 32.1396 23.1376 31.8106 23.1376 31.4019V28.8798C23.1376 28.4711 22.8087 28.1421 22.3999 28.1421H19.9077C19.6386 28.6007 19.3894 29.0692 19.1501 29.5377V31.3919L19.1401 31.4019Z" fill="url(#paint10_linear_110_33860)"/>
<path d="M19.1399 28.8796V29.5475C19.3791 29.079 19.6383 28.6104 19.8975 28.1519H19.8676C19.4589 28.1519 19.1299 28.4808 19.1299 28.8895L19.1399 28.8796Z" fill="url(#paint11_linear_110_33860)"/>
<path d="M19.1399 28.8796V29.5475C19.3791 29.079 19.6383 28.6104 19.8975 28.1519H19.8676C19.4589 28.1519 19.1299 28.4808 19.1299 28.8895L19.1399 28.8796Z" fill="url(#paint12_linear_110_33860)"/>
<path d="M23.0878 23.6362C22.9582 23.7858 22.8286 23.9353 22.709 24.0848C22.8884 23.9951 23.028 23.8356 23.0878 23.6362Z" fill="url(#paint13_linear_110_33860)"/>
<path d="M23.1277 18.7914V11.9527C23.1277 11.544 22.7887 11.2051 22.38 11.2051H19.8878C19.4791 11.2051 19.1401 11.544 19.1401 11.9527V23.2973C20.3364 21.6823 21.6722 20.177 23.1277 18.8013V18.7914Z" fill="url(#paint14_linear_110_33860)"/>
<path d="M23.1277 18.7912C21.6722 20.1669 20.3364 21.6722 19.1401 23.2872V23.4068C19.1401 23.8155 19.4791 24.1545 19.8878 24.1545H22.38C22.4996 24.1545 22.6093 24.1246 22.699 24.0747C22.8186 23.9252 22.9482 23.7756 23.0778 23.6261C23.0978 23.5563 23.1177 23.4865 23.1177 23.4068V18.7812L23.1277 18.7912Z" fill="url(#paint15_linear_110_33860)"/>
<path d="M23.1277 18.7912C21.6722 20.1669 20.3364 21.6722 19.1401 23.2872V23.4068C19.1401 23.8155 19.4791 24.1545 19.8878 24.1545H22.38C22.4996 24.1545 22.6093 24.1246 22.699 24.0747C22.8186 23.9252 22.9482 23.7756 23.0778 23.6261C23.0978 23.5563 23.1177 23.4865 23.1177 23.4068V18.7812L23.1277 18.7912Z" fill="url(#paint16_linear_110_33860)"/>
<defs>
<linearGradient id="paint0_linear_110_33860" x1="46.3451" y1="93.3983" x2="46.2056" y2="6.36034" gradientUnits="userSpaceOnUse">
<stop stop-color="#B829FF"/>
<stop offset="0.53" stop-color="#792EE5"/>
<stop offset="1" stop-color="#624EFF"/>
</linearGradient>
<linearGradient id="paint1_linear_110_33860" x1="56.1849" y1="93.3886" x2="56.0553" y2="6.34062" gradientUnits="userSpaceOnUse">
<stop stop-color="#B829FF"/>
<stop offset="0.53" stop-color="#792EE5"/>
<stop offset="1" stop-color="#624EFF"/>
</linearGradient>
<linearGradient id="paint2_linear_110_33860" x1="36.5256" y1="93.418" x2="36.396" y2="6.37006" gradientUnits="userSpaceOnUse">
<stop stop-color="#B829FF"/>
<stop offset="0.53" stop-color="#792EE5"/>
<stop offset="1" stop-color="#624EFF"/>
</linearGradient>
<linearGradient id="paint3_linear_110_33860" x1="46.4249" y1="93.3983" x2="46.2854" y2="6.36022" gradientUnits="userSpaceOnUse">
<stop stop-color="#B829FF"/>
<stop offset="0.53" stop-color="#792EE5"/>
<stop offset="1" stop-color="#624EFF"/>
</linearGradient>
<linearGradient id="paint4_linear_110_33860" x1="16.4284" y1="93.448" x2="16.2988" y2="6.4" gradientUnits="userSpaceOnUse">
<stop stop-color="#B829FF"/>
<stop offset="0.53" stop-color="#792EE5"/>
<stop offset="1" stop-color="#624EFF"/>
</linearGradient>
<linearGradient id="paint5_linear_110_33860" x1="28.8992" y1="93.4283" x2="28.7597" y2="6.39026" gradientUnits="userSpaceOnUse">
<stop stop-color="#B829FF"/>
<stop offset="0.53" stop-color="#792EE5"/>
<stop offset="1" stop-color="#624EFF"/>
</linearGradient>
<linearGradient id="paint6_linear_110_33860" x1="14.9229" y1="93.4479" x2="14.7933" y2="6.40993" gradientUnits="userSpaceOnUse">
<stop stop-color="#B829FF"/>
<stop offset="0.53" stop-color="#792EE5"/>
<stop offset="1" stop-color="#624EFF"/>
</linearGradient>
<linearGradient id="paint7_linear_110_33860" x1="14.9229" y1="93.4479" x2="14.7933" y2="6.40993" gradientUnits="userSpaceOnUse">
<stop stop-color="#B829FF"/>
<stop offset="0.53" stop-color="#792EE5"/>
<stop offset="1" stop-color="#624EFF"/>
</linearGradient>
<linearGradient id="paint8_linear_110_33860" x1="32.2392" y1="93.4281" x2="32.0996" y2="6.38015" gradientUnits="userSpaceOnUse">
<stop stop-color="#B829FF"/>
<stop offset="0.53" stop-color="#792EE5"/>
<stop offset="1" stop-color="#624EFF"/>
</linearGradient>
<linearGradient id="paint9_linear_110_33860" x1="32.2392" y1="93.4281" x2="32.0996" y2="6.38015" gradientUnits="userSpaceOnUse">
<stop stop-color="#B829FF"/>
<stop offset="0.53" stop-color="#792EE5"/>
<stop offset="1" stop-color="#624EFF"/>
</linearGradient>
<linearGradient id="paint10_linear_110_33860" x1="21.2336" y1="93.4381" x2="21.104" y2="6.40002" gradientUnits="userSpaceOnUse">
<stop stop-color="#B829FF"/>
<stop offset="0.53" stop-color="#792EE5"/>
<stop offset="1" stop-color="#624EFF"/>
</linearGradient>
<linearGradient id="paint11_linear_110_33860" x1="19.6184" y1="93.4478" x2="19.4888" y2="6.39984" gradientUnits="userSpaceOnUse">
<stop stop-color="#B829FF"/>
<stop offset="0.53" stop-color="#792EE5"/>
<stop offset="1" stop-color="#624EFF"/>
</linearGradient>
<linearGradient id="paint12_linear_110_33860" x1="19.6184" y1="93.4478" x2="19.4888" y2="6.39984" gradientUnits="userSpaceOnUse">
<stop stop-color="#B829FF"/>
<stop offset="0.53" stop-color="#792EE5"/>
<stop offset="1" stop-color="#624EFF"/>
</linearGradient>
<linearGradient id="paint13_linear_110_33860" x1="23.008" y1="93.4382" x2="22.8685" y2="6.3901" gradientUnits="userSpaceOnUse">
<stop stop-color="#B829FF"/>
<stop offset="0.53" stop-color="#792EE5"/>
<stop offset="1" stop-color="#624EFF"/>
</linearGradient>
<linearGradient id="paint14_linear_110_33860" x1="21.2535" y1="93.4381" x2="21.114" y2="6.40009" gradientUnits="userSpaceOnUse">
<stop stop-color="#B829FF"/>
<stop offset="0.53" stop-color="#792EE5"/>
<stop offset="1" stop-color="#624EFF"/>
</linearGradient>
<linearGradient id="paint15_linear_110_33860" x1="21.2535" y1="93.4379" x2="21.114" y2="6.39994" gradientUnits="userSpaceOnUse">
<stop stop-color="#B829FF"/>
<stop offset="0.53" stop-color="#792EE5"/>
<stop offset="1" stop-color="#624EFF"/>
</linearGradient>
<linearGradient id="paint16_linear_110_33860" x1="21.2535" y1="93.4379" x2="21.114" y2="6.39994" gradientUnits="userSpaceOnUse">
<stop stop-color="#B829FF"/>
<stop offset="0.53" stop-color="#792EE5"/>
<stop offset="1" stop-color="#624EFF"/>
</linearGradient>
</defs>
</svg>
